HIERARCHY
ROOT newVegas:Hips
{
	OFFSET 0.000000 96.479958 0.000000
	CHANNELS 6 Xposition Yposition Zposition Xrotation Yrotation Zrotation
	JOINT newVegas:Pelvis
	{
		OFFSET 0.000000 0.000000 0.000000
		CHANNELS 3 Xrotation Yrotation Zrotation
		JOINT newVegas:LeftUpLeg
		{
			OFFSET 18.735201 -5.666702 -4.541200
			CHANNELS 3 Xrotation Yrotation Zrotation
			JOINT newVegas:LeftLeg
			{
				OFFSET -0.021200 -31.938179 0.493100
				CHANNELS 3 Xrotation Yrotation Zrotation
				JOINT newVegas:LeftFoot
				{
					OFFSET 0.021200 -31.938179 -4.336299
					CHANNELS 3 Xrotation Yrotation Zrotation
					JOINT newVegas:LeftToeBase
					{
						OFFSET 0.943001 -26.722000 15.023500
						CHANNELS 3 Xrotation Yrotation Zrotation
						End Site
						{
							OFFSET 0.000000 30.670183 0.000000
						}
					}
				}
				JOINT newVegas:Left_PantLeg
				{
					OFFSET 0.663870 -9.044666 -1.108900
					CHANNELS 3 Xrotation Yrotation Zrotation
					End Site
					{
						OFFSET 1.415995 20.635357 0.000000
					}
				}
			}
		}
		JOINT newVegas:RightUpLeg
		{
			OFFSET -18.735201 -5.666702 -4.541200
			CHANNELS 3 Xrotation Yrotation Zrotation
			JOINT newVegas:RightLeg
			{
				OFFSET 0.018946 -31.938133 0.493100
				CHANNELS 3 Xrotation Yrotation Zrotation
				JOINT newVegas:RightFoot
				{
					OFFSET -0.018946 -31.938126 -4.336299
					CHANNELS 3 Xrotation Yrotation Zrotation
					JOINT newVegas:RightToeBase
					{
						OFFSET -0.943001 -26.722004 15.023500
						CHANNELS 3 Xrotation Yrotation Zrotation
						End Site
						{
							OFFSET 0.000000 30.670187 0.000000
						}
					}
				}
				JOINT newVegas:Right_PantLeg
				{
					OFFSET -0.661674 -9.044716 -1.108900
					CHANNELS 3 Xrotation Yrotation Zrotation
					End Site
					{
						OFFSET -1.415958 20.635269 0.000000
					}
				}
			}
		}
	}
	JOINT newVegas:Spine
	{
		OFFSET 0.000000 10.199997 -0.299500
		CHANNELS 3 Xrotation Yrotation Zrotation
		JOINT newVegas:Spine1
		{
			OFFSET 0.000000 11.900002 -1.516600
			CHANNELS 3 Xrotation Yrotation Zrotation
			JOINT newVegas:Spine2
			{
				OFFSET 0.000000 13.600006 -2.842500
				CHANNELS 3 Xrotation Yrotation Zrotation
				JOINT newVegas:Neck
				{
					OFFSET 0.000000 9.624100 -2.890100
					CHANNELS 3 Xrotation Yrotation Zrotation
					JOINT newVegas:Head
					{
						OFFSET 0.000000 14.068802 -1.351900
						CHANNELS 3 Xrotation Yrotation Zrotation
						JOINT newVegas:Hair_Back
						{
							OFFSET 0.000000 3.231903 -17.524799
							CHANNELS 3 Xrotation Yrotation Zrotation
							End Site
							{
								OFFSET 0.000000 19.849884 0.000000
							}
						}
						JOINT newVegas:Hair_Front
						{
							OFFSET 0.000000 31.260406 4.573800
							CHANNELS 3 Xrotation Yrotation Zrotation
							JOINT newVegas:Hair_Front1
							{
								OFFSET 0.000000 2.284103 11.993300
								CHANNELS 3 Xrotation Yrotation Zrotation
								JOINT newVegas:Hair_Front2
								{
									OFFSET 0.000000 2.284103 11.993300
									CHANNELS 3 Xrotation Yrotation Zrotation
									End Site
									{
										OFFSET 0.000000 12.208862 0.000000
									}
								}
							}
						}
						JOINT newVegas:Jowel
						{
							OFFSET 0.000000 -7.458206 6.864100
							CHANNELS 3 Xrotation Yrotation Zrotation
							End Site
							{
								OFFSET 0.000000 19.849884 0.000000
							}
						}
					}
				}
				JOINT newVegas:LeftShoulder
				{
					OFFSET 15.263000 10.923401 -0.547700
					CHANNELS 3 Xrotation Yrotation Zrotation
					JOINT newVegas:LeftArm
					{
						OFFSET 25.438599 -2.830597 -13.032500
						CHANNELS 3 Xrotation Yrotation Zrotation
						JOINT newVegas:LeftForeArm
						{
							OFFSET 29.960503 0.000000 0.000000
							CHANNELS 3 Xrotation Yrotation Zrotation
							JOINT newVegas:LeftHand
							{
								OFFSET 27.849251 0.000000 0.000000
								CHANNELS 3 Xrotation Yrotation Zrotation
								JOINT newVegas:LeftHandThumb1
								{
									OFFSET 4.487587 -3.305161 6.305391
									CHANNELS 3 Xrotation Yrotation Zrotation
									JOINT newVegas:LeftHandThumb2
									{
										OFFSET 5.480453 -3.164139 3.164143
										CHANNELS 3 Xrotation Yrotation Zrotation
										JOINT newVegas:LeftHandThumb3
										{
											OFFSET 5.159721 -2.978973 2.978967
											CHANNELS 3 Xrotation Yrotation Zrotation
											End Site
											{
												OFFSET 2.494507 5.926697 1.738678
											}
										}
									}
								}
								JOINT newVegas:LeftHandIndex1
								{
									OFFSET 18.578728 -0.527832 5.208049
									CHANNELS 3 Xrotation Yrotation Zrotation
									JOINT newVegas:LeftHandIndex2
									{
										OFFSET 3.192009 0.000000 0.000000
										CHANNELS 3 Xrotation Yrotation Zrotation
										JOINT newVegas:LeftHandIndex3
										{
											OFFSET 3.835129 0.000000 0.000000
											CHANNELS 3 Xrotation Yrotation Zrotation
											End Site
											{
												OFFSET -0.034599 3.816971 0.371180
											}
										}
									}
								}
								JOINT newVegas:LeftHandMiddle1
								{
									OFFSET 18.476105 0.000000 0.000000
									CHANNELS 3 Xrotation Yrotation Zrotation
									JOINT newVegas:LeftHandMiddle2
									{
										OFFSET 3.324875 0.000000 0.000000
										CHANNELS 3 Xrotation Yrotation Zrotation
										JOINT newVegas:LeftHandMiddle3
										{
											OFFSET 4.596550 0.000000 0.000000
											CHANNELS 3 Xrotation Yrotation Zrotation
											End Site
											{
												OFFSET 0.057701 4.578827 0.399218
											}
										}
									}
								}
								JOINT newVegas:LeftHandRing1
								{
									OFFSET 17.732719 0.121887 -4.201567
									CHANNELS 3 Xrotation Yrotation Zrotation
									JOINT newVegas:LeftHandRing2
									{
										OFFSET 2.733170 0.000000 0.000000
										CHANNELS 3 Xrotation Yrotation Zrotation
										JOINT newVegas:LeftHandRing3
										{
											OFFSET 3.178268 0.000000 0.000000
											CHANNELS 3 Xrotation Yrotation Zrotation
											End Site
											{
												OFFSET 0.119102 3.170624 0.185394
											}
										}
									}
								}
								JOINT newVegas:LeftHandPinky1
								{
									OFFSET 15.989624 -0.606689 -7.535461
									CHANNELS 3 Xrotation Yrotation Zrotation
									JOINT newVegas:LeftHandPinky2
									{
										OFFSET 2.538986 0.000000 0.000000
										CHANNELS 3 Xrotation Yrotation Zrotation
										JOINT newVegas:LeftHandPinky3
										{
											OFFSET 2.593102 0.000000 0.000000
											CHANNELS 3 Xrotation Yrotation Zrotation
											End Site
											{
												OFFSET -0.150902 2.584198 0.152708
											}
										}
									}
								}
							}
							JOINT newVegas:Left_Sleeve
							{
								OFFSET 0.267448 -0.649796 0.577675
								CHANNELS 3 Xrotation Yrotation Zrotation
								End Site
								{
									OFFSET 0.000000 15.991241 0.000000
								}
							}
							JOINT newVegas:Left_CapeC
							{
								OFFSET 15.715958 -8.608795 -6.935905
								CHANNELS 3 Xrotation Yrotation Zrotation
								JOINT newVegas:Left_CapeC1
								{
									OFFSET 0.000000 -8.688499 0.000000
									CHANNELS 3 Xrotation Yrotation Zrotation
									End Site
									{
										OFFSET 0.000000 8.688499 0.000000
									}
								}
							}
						}
						JOINT newVegas:Left_CapeB
						{
							OFFSET 26.118385 -8.608795 -7.079235
							CHANNELS 3 Xrotation Yrotation Zrotation
							JOINT newVegas:Left_CapeB1
							{
								OFFSET 0.000000 -8.688499 0.000000
								CHANNELS 3 Xrotation Yrotation Zrotation
								End Site
								{
									OFFSET 0.000000 8.688499 0.000000
								}
							}
						}
						JOINT newVegas:Left_CapeA
						{
							OFFSET 5.115639 -8.608795 -10.395809
							CHANNELS 3 Xrotation Yrotation Zrotation
							JOINT newVegas:Left_CapeA1
							{
								OFFSET 0.000000 -8.688499 0.000000
								CHANNELS 3 Xrotation Yrotation Zrotation
								End Site
								{
									OFFSET 0.000000 8.688499 0.000000
								}
							}
						}
					}
				}
				JOINT newVegas:RightShoulder
				{
					OFFSET -15.263000 10.923401 -0.547700
					CHANNELS 3 Xrotation Yrotation Zrotation
					JOINT newVegas:RightArm
					{
						OFFSET -25.438599 -2.830597 -13.032500
						CHANNELS 3 Xrotation Yrotation Zrotation
						JOINT newVegas:RightForeArm
						{
							OFFSET -29.960503 0.000000 0.000000
							CHANNELS 3 Xrotation Yrotation Zrotation
							JOINT newVegas:RightHand
							{
								OFFSET -27.849251 0.000000 0.000000
								CHANNELS 3 Xrotation Yrotation Zrotation
								JOINT newVegas:RightHandThumb1
								{
									OFFSET -4.487587 -3.305161 6.305391
									CHANNELS 3 Xrotation Yrotation Zrotation
									JOINT newVegas:RightHandThumb2
									{
										OFFSET -5.480453 -3.164139 3.164143
										CHANNELS 3 Xrotation Yrotation Zrotation
										JOINT newVegas:RightHandThumb3
										{
											OFFSET -5.159721 -2.978973 2.978967
											CHANNELS 3 Xrotation Yrotation Zrotation
											End Site
											{
												OFFSET -2.494507 5.926697 1.738678
											}
										}
									}
								}
								JOINT newVegas:RightHandIndex1
								{
									OFFSET -18.578728 -0.527832 5.208049
									CHANNELS 3 Xrotation Yrotation Zrotation
									JOINT newVegas:RightHandIndex2
									{
										OFFSET -3.192009 0.000000 0.000000
										CHANNELS 3 Xrotation Yrotation Zrotation
										JOINT newVegas:RightHandIndex3
										{
											OFFSET -3.835129 0.000000 0.000000
											CHANNELS 3 Xrotation Yrotation Zrotation
											End Site
											{
												OFFSET 0.034599 3.816971 0.371180
											}
										}
									}
								}
								JOINT newVegas:RightHandMiddle1
								{
									OFFSET -18.476105 0.000000 0.000000
									CHANNELS 3 Xrotation Yrotation Zrotation
									JOINT newVegas:RightHandMiddle2
									{
										OFFSET -3.324875 0.000000 0.000000
										CHANNELS 3 Xrotation Yrotation Zrotation
										JOINT newVegas:RightHandMiddle3
										{
											OFFSET -4.596550 0.000000 0.000000
											CHANNELS 3 Xrotation Yrotation Zrotation
											End Site
											{
												OFFSET -0.057701 4.578827 0.399218
											}
										}
									}
								}
								JOINT newVegas:RightHandRing1
								{
									OFFSET -17.732719 0.121887 -4.201567
									CHANNELS 3 Xrotation Yrotation Zrotation
									JOINT newVegas:RightHandRing2
									{
										OFFSET -2.733170 0.000000 0.000000
										CHANNELS 3 Xrotation Yrotation Zrotation
										JOINT newVegas:RightHandRing3
										{
											OFFSET -3.178268 0.000000 0.000000
											CHANNELS 3 Xrotation Yrotation Zrotation
											End Site
											{
												OFFSET -0.119102 3.170624 0.185394
											}
										}
									}
								}
								JOINT newVegas:RightHandPinky1
								{
									OFFSET -15.989624 -0.606689 -7.535461
									CHANNELS 3 Xrotation Yrotation Zrotation
									JOINT newVegas:RightHandPinky2
									{
										OFFSET -2.538986 0.000000 0.000000
										CHANNELS 3 Xrotation Yrotation Zrotation
										JOINT newVegas:RightHandPinky3
										{
											OFFSET -2.593102 0.000000 0.000000
											CHANNELS 3 Xrotation Yrotation Zrotation
											End Site
											{
												OFFSET 0.150902 2.584198 0.152708
											}
										}
									}
								}
							}
							JOINT newVegas:Right_CapeC
							{
								OFFSET -15.715958 -8.608795 -6.935905
								CHANNELS 3 Xrotation Yrotation Zrotation
								JOINT newVegas:Right_CapeC1
								{
									OFFSET 0.000000 -8.688499 0.000000
									CHANNELS 3 Xrotation Yrotation Zrotation
									End Site
									{
										OFFSET 0.000000 8.688499 0.000000
									}
								}
							}
							JOINT newVegas:Right_Sleeve
							{
								OFFSET -0.267448 -0.649994 0.577675
								CHANNELS 3 Xrotation Yrotation Zrotation
								End Site
								{
									OFFSET 0.000000 15.991302 0.000000
								}
							}
						}
						JOINT newVegas:Right_CapeA
						{
							OFFSET -5.115540 -8.608795 -10.395824
							CHANNELS 3 Xrotation Yrotation Zrotation
							JOINT newVegas:Right_CapeA1
							{
								OFFSET 0.000000 -8.688499 0.000000
								CHANNELS 3 Xrotation Yrotation Zrotation
								End Site
								{
									OFFSET 0.000000 8.688499 0.000000
								}
							}
						}
						JOINT newVegas:Right_CapeB
						{
							OFFSET -26.118187 -8.608795 -7.079266
							CHANNELS 3 Xrotation Yrotation Zrotation
							JOINT newVegas:Right_CapeB1
							{
								OFFSET 0.000000 -8.688499 0.000000
								CHANNELS 3 Xrotation Yrotation Zrotation
								End Site
								{
									OFFSET 0.000000 8.688499 0.000000
								}
							}
						}
					}
				}
				JOINT newVegas:Left_Collar
				{
					OFFSET 18.625099 8.655502 8.828100
					CHANNELS 3 Xrotation Yrotation Zrotation
					JOINT newVegas:Left_Collar1
					{
						OFFSET 14.783401 10.540405 -1.259500
						CHANNELS 3 Xrotation Yrotation Zrotation
						End Site
						{
							OFFSET 0.000000 18.199875 0.000000
						}
					}
				}
				JOINT newVegas:Collar_Back
				{
					OFFSET 0.000000 15.630707 -20.132601
					CHANNELS 3 Xrotation Yrotation Zrotation
					End Site
					{
						OFFSET 0.000000 22.523010 0.000000
					}
				}
				JOINT newVegas:Left_Peck
				{
					OFFSET 17.239599 -5.132599 25.482599
					CHANNELS 3 Xrotation Yrotation Zrotation
					End Site
					{
						OFFSET 0.000000 22.523010 0.000000
					}
				}
				JOINT newVegas:Right_Peck
				{
					OFFSET -17.239599 -5.132202 25.482599
					CHANNELS 3 Xrotation Yrotation Zrotation
					End Site
					{
						OFFSET 0.000000 22.523010 0.000000
					}
				}
				JOINT newVegas:Right_Collar
				{
					OFFSET -18.625099 8.655792 8.828100
					CHANNELS 3 Xrotation Yrotation Zrotation
					JOINT newVegas:Right_Collar1
					{
						OFFSET -14.783401 10.539993 -1.259500
						CHANNELS 3 Xrotation Yrotation Zrotation
						End Site
						{
							OFFSET 0.000000 18.199631 0.000000
						}
					}
				}
			}
		}
		JOINT newVegas:Belly
		{
			OFFSET 0.000000 -6.540398 9.014299
			CHANNELS 3 Xrotation Yrotation Zrotation
			End Site
			{
				OFFSET 0.000000 11.566666 0.000000
			}
		}
	}
	JOINT newVegas:ElvisFacialAnim_Joint
	{
		OFFSET 1.000000 -95.330101 -8.825800
		CHANNELS 3 Xrotation Yrotation Zrotation
		End Site
		{
			OFFSET 0.000000 35.315800 0.000000
		}
	}
}
MOTION
Frames: 4
Frame Time: 0.033333
-39.601448 93.963722 10.194625 -5.472069 -8.231813 0.287263 -0.000001 -0.000000 0.000000 -24.340409 12.269745 11.617125 34.343059 3.894683 2.599970 8.188945 0.894619 -8.738195 0.000002 -0.000000 0.000000 -0.000000 -0.000001 0.000001 -7.579723 -7.252519 -6.752620 26.872869 -9.313731 -3.542554 -12.588729 -4.875733 9.590590 -0.000000 0.000000 0.000000 -0.000000 0.000001 -0.000001 9.983232 -0.330630 2.081467 1.549391 -0.203617 1.195595 1.538862 -0.221254 1.083952 0.280301 -0.027707 0.404875 0.280305 -0.027712 0.404875 0.000000 0.000000 -0.000000 0.280226 -0.027701 0.404871 0.280367 -0.027716 0.404875 -0.000001 -0.000001 -0.000000 0.000000 0.000000 0.000001 0.609727 -0.967588 -10.514298 4.871277 -28.405922 -68.520833 -0.000011 -12.269579 0.000011 -41.021768 3.782674 2.532698 -3.400267 4.697019 3.073398 12.748416 22.139232 14.567264 -0.000001 0.000000 -0.000004 -0.081449 0.257374 -19.620082 0.253233 1.705439 -16.890727 0.000000 -0.000000 -0.000002 -0.053216 2.867572 -17.225281 0.425008 2.192536 -21.938071 -0.000000 0.000001 0.000002 0.083886 3.332131 -17.648804 0.468228 2.296844 -23.041390 -0.000001 -0.000001 0.000001 0.567350 5.029701 -21.050143 0.179733 1.441428 -14.214290 -0.000000 -0.000005 -0.000001 0.000004 0.000000 0.000000 0.000004 0.000000 0.000000 0.000003 0.000000 0.000000 -0.000002 0.000000 -0.000001 -0.000002 0.000001 -0.000001 -0.000002 0.000000 -0.000001 -0.000004 0.000001 -0.000001 1.011040 8.416535 13.864822 5.504154 26.553214 59.367205 -0.000012 9.024170 0.000002 -4.980270 3.182287 0.384234 -11.963888 9.462904 -3.657376 13.057903 -32.451062 -13.510786 0.000004 -0.000002 -0.000001 0.322524 0.929001 18.677309 0.341312 -1.751679 22.049807 -0.000003 0.000001 0.000001 0.335033 -3.908568 23.254962 0.371494 -1.824387 23.017136 0.000000 0.000000 0.000001 0.074906 -3.301748 23.212762 0.412670 -1.918376 24.277952 0.000000 0.000001 -0.000002 0.637081 -4.620141 24.154143 0.266195 -1.553460 19.445668 -0.000000 0.000003 0.000001 0.000002 -0.000000 0.000001 0.000000 -0.000000 0.000001 0.000002 0.000000 0.000001 0.000001 0.000000 0.000000 0.000001 0.000000 0.000000 0.000001 0.000000 0.000000 0.000001 -0.000000 0.000000 0.000001 -0.000000 0.000000 0.000001 -0.000000 0.000000 0.000001 -0.000000 0.000000 0.000001 -0.000000 0.000000 0.000001 -0.000000 0.000000 0.000001 -0.000000 0.000000 0.000001 -0.000000 0.000000 -0.000000 -0.000001 -0.000000 -0.000001 -0.000000 0.000000 
-40.302265 94.318268 10.380205 -5.399015 -8.406816 0.056835 0.000001 -0.000001 0.000000 -20.073330 14.048250 7.797153 29.166622 3.060894 4.505271 2.312565 0.589170 -6.760362 0.000000 -0.000000 0.000000 -0.000000 0.000000 0.000000 -6.181255 -7.633183 -5.788862 24.480286 -9.366034 -3.492635 -11.855492 -4.498968 8.836560 -0.000000 -0.000000 0.000000 0.000001 -0.000001 -0.000001 9.262393 0.078774 1.996321 1.477947 -0.084507 1.216124 1.467698 -0.099440 1.095385 0.360501 -0.035700 0.363783 0.360502 -0.035701 0.363782 0.000001 0.000001 0.000000 0.360576 -0.035713 0.363788 0.360498 -0.035705 0.363784 -0.000001 -0.000001 -0.000001 0.000001 0.000001 0.000000 0.606783 -0.793663 -10.390897 4.651371 -28.847396 -69.134622 -0.000002 -12.058779 0.000007 -40.848305 4.360445 1.541133 -3.191227 4.497928 3.202638 12.682433 22.394817 14.753630 0.000001 0.000000 -0.000004 -0.064567 0.210838 -19.183746 0.220969 1.595358 -15.770400 -0.000000 -0.000001 -0.000001 -0.057656 2.805044 -16.604455 0.394703 2.115797 -21.131869 -0.000001 0.000001 -0.000005 0.056088 3.145628 -15.813223 0.492815 2.353769 -23.647413 0.000000 0.000001 0.000003 0.526500 4.940712 -20.109779 0.172958 1.414440 -13.942545 0.000001 -0.000005 -0.000000 -0.000004 0.000000 -0.000001 -0.000004 0.000000 -0.000001 -0.000005 0.000000 -0.000001 0.000000 -0.000001 0.000000 0.000000 -0.000001 0.000000 0.000000 -0.000001 0.000000 -0.000001 -0.000001 -0.000000 0.888629 9.025783 14.518252 6.348878 26.097007 58.972502 0.000009 9.077589 -0.000001 -6.006251 2.594493 1.111006 -11.205748 8.757932 -3.842869 13.031499 -32.310698 -13.720614 -0.000006 -0.000004 -0.000001 0.335385 0.823030 19.215597 0.366430 -1.812429 22.857658 -0.000003 -0.000002 -0.000002 0.324833 -3.895002 24.070910 0.395266 -1.879327 23.752801 0.000001 0.000001 -0.000002 0.097957 -3.401344 24.446437 0.443379 -1.984996 25.179545 0.000001 0.000002 -0.000001 0.687360 -4.738080 25.775790 0.294134 -1.630385 20.451116 -0.000001 0.000002 -0.000000 0.000002 0.000000 0.000000 0.000002 -0.000000 0.000000 0.000002 0.000000 0.000000 0.000002 0.000001 0.000000 0.000002 0.000001 0.000000 0.000002 0.000001 0.000000 0.000002 0.000001 0.000000 -0.000000 -0.000001 -0.000000 -0.000000 -0.000001 -0.000000 -0.000000 -0.000001 -0.000000 -0.000000 -0.000001 -0.000000 -0.000000 -0.000001 -0.000000 -0.000000 -0.000001 -0.000000 -0.000000 -0.000001 -0.000000 0.000000 -0.000000 0.000000 0.000001 -0.000001 0.000000 
-40.877552 94.601265 10.563305 -5.288464 -8.561234 -0.199886 0.000001 0.000001 0.000000 -16.229173 14.769999 6.862617 24.344396 2.447903 4.703035 -0.404185 0.707981 -6.517358 0.000000 0.000000 0.000000 -0.000000 0.000000 0.000000 -4.895012 -7.960348 -4.917642 22.204416 -9.394478 -3.430589 -11.112848 -4.145413 8.196142 0.000000 -0.000000 -0.000000 0.000001 -0.000002 0.000000 8.520561 0.428285 1.939355 1.396944 0.015678 1.239269 1.386718 0.003707 1.114967 0.462948 -0.037785 0.314845 0.462951 -0.037784 0.314844 -0.000000 0.000001 -0.000000 0.462949 -0.037780 0.314843 0.462949 -0.037784 0.314844 0.000001 0.000001 -0.000001 -0.000000 0.000001 0.000000 0.610494 -0.734471 -10.312250 4.862259 -28.932637 -69.471514 -0.000000 -12.349751 0.000005 -41.021139 5.490629 1.184657 -2.981995 4.299455 3.332946 12.615635 22.649783 14.940854 0.000001 0.000000 -0.000001 -0.047509 0.155237 -18.650460 0.172124 1.411062 -13.908575 -0.000000 0.000000 0.000000 -0.062895 2.711103 -15.663958 0.348987 1.993567 -19.856854 0.000000 -0.000000 0.000004 0.028724 2.886725 -13.196184 0.510211 2.393070 -24.067509 -0.000000 -0.000002 -0.000003 0.460847 4.781552 -18.453715 0.155101 1.340476 -13.199671 0.000001 -0.000003 -0.000003 0.000003 0.000001 -0.000000 0.000003 0.000001 -0.000000 0.000002 0.000001 -0.000000 -0.000001 0.000000 -0.000000 -0.000001 0.000000 -0.000000 -0.000001 0.000000 -0.000000 -0.000002 0.000000 -0.000001 0.809973 9.602988 14.972750 7.092044 25.794226 58.699534 -0.000004 9.027917 0.000020 -7.226152 1.978219 1.745220 -10.471816 8.054124 -4.015604 13.005739 -32.203785 -13.934809 -0.000001 -0.000001 0.000001 0.331424 0.767767 19.256492 0.379424 -1.842932 23.265025 0.000001 0.000001 0.000002 0.299324 -3.843095 24.383787 0.406399 -1.904420 24.090058 -0.000002 -0.000001 0.000001 0.112386 -3.459190 25.166148 0.460468 -2.020909 25.668170 0.000002 0.000001 -0.000002 0.721728 -4.819655 26.873191 0.311389 -1.675958 21.049648 -0.000001 0.000003 0.000001 -0.000002 0.000000 -0.000000 -0.000002 -0.000000 -0.000000 -0.000002 0.000000 0.000000 -0.000001 0.000001 0.000000 -0.000001 0.000001 0.000000 -0.000001 0.000001 0.000000 -0.000001 0.000001 0.000000 0.000000 0.000000 -0.000000 0.000000 0.000000 -0.000000 0.000000 0.000000 -0.000000 0.000000 0.000000 -0.000000 0.000000 0.000000 -0.000000 0.000000 0.000000 -0.000000 0.000000 0.000000 -0.000000 0.000000 -0.000000 0.000000 0.000001 0.000001 0.000000 
-41.360882 94.794052 10.760518 -5.149073 -8.692877 -0.491760 -0.000000 0.000000 -0.000000 -13.287649 15.093070 6.805179 20.529865 2.267521 4.600899 -1.823241 0.924099 -6.763284 0.000000 0.000000 -0.000000 0.000000 -0.000000 0.000001 -3.764667 -8.250310 -4.098820 20.203192 -9.406371 -3.377008 -10.475476 -3.824183 7.664709 -0.000000 0.000000 -0.000000 -0.000001 -0.000001 0.000000 7.771030 0.724966 1.921874 1.311087 0.099251 1.265507 1.300626 0.090428 1.142027 0.565467 -0.034870 0.267846 0.565470 -0.034869 0.267844 0.000001 0.000000 0.000000 0.565471 -0.034867 0.267845 0.565466 -0.034872 0.267845 0.000001 0.000000 0.000000 0.000001 0.000000 0.000000 0.664305 -1.578881 -10.430728 4.759474 -28.534285 -69.751586 -0.000006 -11.845379 -0.000006 -40.753290 5.632957 0.733380 -2.772566 4.101604 3.464311 12.547980 22.904121 15.129009 -0.000001 -0.000001 -0.000006 -0.033065 0.092258 -18.027424 0.120456 1.183114 -11.626456 -0.000001 -0.000001 0.000000 -0.067690 2.597210 -14.542595 0.296910 1.843083 -18.301212 0.000000 -0.000000 -0.000000 0.011364 2.587787 -10.184633 0.521006 2.417073 -24.324747 -0.000000 -0.000001 -0.000001 0.388118 4.582068 -16.408017 0.132109 1.238374 -12.177829 0.000000 -0.000002 0.000003 -0.000001 0.000000 0.000001 -0.000001 0.000000 0.000001 -0.000001 0.000000 0.000001 0.000001 -0.000001 -0.000001 0.000001 -0.000001 -0.000002 0.000001 -0.000001 -0.000001 -0.000001 -0.000001 -0.000001 0.804693 10.124021 15.110906 7.643230 25.669552 58.682554 -0.000002 8.876725 0.000005 -8.479788 1.433955 2.315658 -9.732093 7.343022 -4.166958 12.979883 -32.087781 -14.147677 0.000000 -0.000000 -0.000000 0.312877 0.748712 18.875863 0.381651 -1.848101 23.334013 -0.000002 -0.000001 0.000000 0.261954 -3.758435 24.273720 0.406368 -1.904347 24.089090 0.000001 0.000000 0.000001 0.118538 -3.482920 25.462066 0.465724 -2.031824 25.817137 0.000000 0.000001 0.000003 0.749906 -4.868033 27.545632 0.319039 -1.695663 21.309292 0.000001 0.000003 0.000005 0.000001 0.000001 0.000001 0.000001 0.000000 -0.000000 0.000001 0.000001 0.000000 -0.000001 0.000001 -0.000000 -0.000001 0.000001 -0.000000 -0.000001 0.000001 -0.000000 -0.000001 0.000001 -0.000000 -0.000000 0.000000 -0.000000 -0.000000 0.000000 -0.000000 -0.000000 0.000000 -0.000000 -0.000000 0.000000 -0.000000 -0.000000 0.000000 -0.000000 -0.000000 0.000000 -0.000000 -0.000000 0.000000 -0.000000 -0.000000 0.000000 -0.000000 -0.000000 0.000000 -0.000000 
